<svg width="32" height="32" viewBox="0 0 32 32" fill="none" xmlns="http://www.w3.org/2000/svg">
<path d="M10.6667 8C9.93029 8 9.33333 8.59695 9.33333 9.33333C9.33333 10.0697 9.93029 10.6667 10.6667 10.6667H21.3333C22.0697 10.6667 22.6667 10.0697 22.6667 9.33333C22.6667 8.59695 22.0697 8 21.3333 8H10.6667Z" fill="black"/>
<path d="M9.33333 14.6667C9.33333 13.9303 9.93029 13.3333 10.6667 13.3333H21.3333C22.0697 13.3333 22.6667 13.9303 22.6667 14.6667C22.6667 15.403 22.0697 16 21.3333 16H10.6667C9.93029 16 9.33333 15.403 9.33333 14.6667Z" fill="black"/>
<path d="M10.6667 18.6667C9.93029 18.6667 9.33333 19.2636 9.33333 20C9.33333 20.7364 9.93029 21.3333 10.6667 21.3333H16C16.7364 21.3333 17.3333 20.7364 17.3333 20C17.3333 19.2636 16.7364 18.6667 16 18.6667H10.6667Z" fill="black"/>
<path fill-rule="evenodd" clip-rule="evenodd" d="M6.66667 2.66667C5.19391 2.66667 4 3.86058 4 5.33333V26.6667C4 28.1394 5.19391 29.3333 6.66667 29.3333H25.3333C26.8061 29.3333 28 28.1394 28 26.6667V5.33333C28 3.86057 26.8061 2.66667 25.3333 2.66667H6.66667ZM25.3333 5.33333H6.66667L6.66667 26.6667H18.0829L25.3333 18.812V5.33333ZM25.3333 26.6667H21.712L25.3333 22.7435V26.6667Z" fill="black"/>
</svg>
