<svg width="32" height="32" viewBox="0 0 32 32" fill="none" xmlns="http://www.w3.org/2000/svg">
<path fill-rule="evenodd" clip-rule="evenodd" d="M4 28C4 28.7364 4.59695 29.3333 5.33333 29.3333C6.06971 29.3333 6.66667 28.7364 6.66667 28V22.6667H14.6667V26C14.6667 26.7364 15.2636 27.3333 16 27.3333H28C28.4231 27.3333 28.8211 27.1325 29.0725 26.7921C29.3239 26.4518 29.3988 26.0123 29.2744 25.6079L26.7334 17.3496L29.2649 9.75497C29.4004 9.34837 29.3323 8.90141 29.0817 8.55372C28.8311 8.20603 28.4286 8 28 8H21.3333V6.66667C21.3333 5.93029 20.7364 5.33333 20 5.33333H6.66667L6.66667 4C6.66667 3.26362 6.06971 2.66667 5.33333 2.66667C4.59695 2.66667 4 3.26362 4 4V28ZM6.66667 8V20H18.6667V8H6.66667ZM21.3333 21.3333V10.6667H26.1501L24.0684 16.9117C23.9805 17.1753 23.9772 17.4598 24.059 17.7254L26.1947 24.6667H17.3333V22.6667H20C20.7364 22.6667 21.3333 22.0697 21.3333 21.3333Z" fill="black"/>
</svg>
