<svg width="32" height="32" viewBox="0 0 32 32" fill="none" xmlns="http://www.w3.org/2000/svg">
<path d="M9.33333 21.3333C9.33333 22.0697 9.93028 22.6667 10.6667 22.6667C11.403 22.6667 12 22.0697 12 21.3333V18.6667C12 17.9303 11.403 17.3333 10.6667 17.3333C9.93028 17.3333 9.33333 17.9303 9.33333 18.6667V21.3333Z" fill="black"/>
<path d="M16 22.6667C15.2636 22.6667 14.6667 22.0697 14.6667 21.3333V10.6667C14.6667 9.93029 15.2636 9.33333 16 9.33333C16.7364 9.33333 17.3333 9.93029 17.3333 10.6667V21.3333C17.3333 22.0697 16.7364 22.6667 16 22.6667Z" fill="black"/>
<path d="M20 21.3333C20 22.0697 20.597 22.6667 21.3333 22.6667C22.0697 22.6667 22.6667 22.0697 22.6667 21.3333V13.3333C22.6667 12.597 22.0697 12 21.3333 12C20.597 12 20 12.597 20 13.3333V21.3333Z" fill="black"/>
<path fill-rule="evenodd" clip-rule="evenodd" d="M2.66666 6.66667C2.66666 5.19391 3.86057 4 5.33333 4H26.6667C28.1394 4 29.3333 5.19391 29.3333 6.66667V25.3333C29.3333 26.8061 28.1394 28 26.6667 28H5.33333C3.86057 28 2.66666 26.8061 2.66666 25.3333V6.66667ZM5.33333 6.66667H26.6667V25.3333H5.33333V6.66667Z" fill="black"/>
</svg>
