<svg width="32" height="32" viewBox="0 0 32 32" fill="none" xmlns="http://www.w3.org/2000/svg">
<path d="M17.3333 16.9273C17.3598 16.9095 17.3978 16.8884 17.4525 16.8631C17.6398 16.7765 17.8136 16.7289 18.0754 16.6573C18.2238 16.6166 18.4006 16.5683 18.6241 16.5006C19.1245 16.3492 19.847 16.0941 20.4222 15.5C21.0439 14.8578 21.3333 13.9978 21.3333 12.963L21.3333 12.9497C21.3335 12.6407 21.3341 11.4319 20.6466 10.2733C19.8779 8.97791 18.412 8 16 8C14.7916 8 13.796 8.27647 12.9973 8.75963C12.2011 9.24132 11.6744 9.88364 11.3322 10.5047C10.9942 11.1181 10.8313 11.7179 10.7511 12.155C10.7104 12.3763 10.6894 12.5641 10.6786 12.7024C10.6731 12.7717 10.6701 12.8293 10.6685 12.8733C10.6677 12.8952 10.6672 12.9138 10.667 12.9289L10.6667 12.9487L10.6667 12.9565L10.6666 12.9599L10.6666 12.9615L10.6667 12.963C10.6667 13.6993 11.2636 14.2963 12 14.2963C12.7323 14.2963 13.3267 13.7059 13.3333 12.9751L13.3333 12.972C13.3336 12.9627 13.3347 12.9415 13.337 12.9116C13.3417 12.8514 13.352 12.7556 13.3739 12.6367C13.4186 12.3932 13.5058 12.0856 13.6678 11.7916C13.8256 11.5052 14.0489 11.2402 14.3776 11.0413C14.7039 10.8439 15.2083 10.6667 16 10.6667C17.588 10.6667 18.122 11.2443 18.3533 11.6341C18.6555 12.1434 18.6666 12.7306 18.6666 12.963C18.6666 13.4797 18.5374 13.6131 18.507 13.6445C18.4313 13.7226 18.2721 13.8211 17.8519 13.9482C17.7833 13.969 17.6944 13.9934 17.5918 14.0217C17.2414 14.1181 16.7322 14.2582 16.333 14.4428C15.7085 14.7317 15.043 15.2394 14.734 16.1741C14.6894 16.3091 14.6666 16.4504 14.6666 16.5926L14.6667 17.6663C14.6667 18.4027 15.2636 19 16 19C16.7364 19 17.3333 18.403 17.3333 17.6667L17.3333 16.9273Z" fill="black"/>
<path d="M16 24C16.7364 24 17.3333 23.403 17.3333 22.6667C17.3333 21.9303 16.7364 21.3333 16 21.3333C15.2636 21.3333 14.6667 21.9303 14.6667 22.6667C14.6667 23.403 15.2636 24 16 24Z" fill="black"/>
<path fill-rule="evenodd" clip-rule="evenodd" d="M16 29.3333C23.3638 29.3333 29.3333 23.3638 29.3333 16C29.3333 8.6362 23.3638 2.66667 16 2.66667C8.63619 2.66667 2.66666 8.6362 2.66666 16C2.66666 23.3638 8.63619 29.3333 16 29.3333ZM16 26.6667C21.891 26.6667 26.6667 21.891 26.6667 16C26.6667 10.109 21.891 5.33333 16 5.33333C10.109 5.33333 5.33332 10.109 5.33332 16C5.33332 21.891 10.109 26.6667 16 26.6667Z" fill="black"/>
</svg>
