<svg width="29" height="29" viewBox="0 0 29 29" fill="none" xmlns="http://www.w3.org/2000/svg">
<path fill-rule="evenodd" clip-rule="evenodd" d="M5.95586 21.3355C5.72933 21.5621 5.60208 21.8694 5.60208 22.1898C5.60208 22.5102 5.72933 22.8175 5.95586 23.0441C10.6744 27.7627 18.3256 27.7627 23.0441 23.0441C27.7627 18.3256 27.7627 10.6744 23.0441 5.95588C18.3256 1.23733 10.6744 1.23733 5.95586 5.95588C3.9813 7.92433 2.75129 10.5172 2.47586 13.2917H1.20832C0.969372 13.2917 0.735803 13.3626 0.537141 13.4954C0.338479 13.6282 0.183644 13.8169 0.0922091 14.0376C0.000774486 14.2584 -0.0231541 14.5013 0.0234484 14.7357C0.0700508 14.97 0.185092 15.1853 0.354028 15.3543L2.77069 17.771L2.77311 17.7734C2.88528 17.8856 3.01851 17.9745 3.16514 18.035C3.31177 18.0956 3.46891 18.1266 3.62755 18.1262C3.78619 18.1259 3.94321 18.0942 4.08958 18.0331C4.23595 17.9719 4.36879 17.8824 4.48049 17.7698L6.89715 15.3543C7.06616 15.1852 7.18123 14.9698 7.22779 14.7354C7.27436 14.5009 7.25033 14.2579 7.15874 14.0371C7.06716 13.8163 6.91213 13.6276 6.71329 13.4949C6.51444 13.3622 6.2807 13.2915 6.04165 13.2917H4.90824C5.18143 11.1243 6.18065 9.11346 7.74303 7.58674C9.30542 6.06003 11.3389 5.10752 13.5119 4.88445C15.685 4.66138 17.8695 5.18092 19.7095 6.35837C21.5494 7.53583 22.9364 9.30178 23.6442 11.3684C24.352 13.435 24.3389 15.6804 23.6072 17.7387C22.8754 19.797 21.4681 21.5467 19.6146 22.7027C17.7611 23.8588 15.5707 24.3529 13.4004 24.1046C11.23 23.8563 9.2078 22.8803 7.66324 21.3355C7.43669 21.1094 7.12966 20.9824 6.80955 20.9824C6.48944 20.9824 6.18241 21.1094 5.95586 21.3355ZM12.0833 9.66667C12.0833 9.3462 12.2106 9.03885 12.4372 8.81225C12.6638 8.58564 12.9712 8.45833 13.2917 8.45833C13.6121 8.45833 13.9195 8.58564 14.1461 8.81225C14.3727 9.03885 14.5 9.3462 14.5 9.66667V14.5H19.3333C19.6538 14.5 19.9611 14.6273 20.1877 14.8539C20.4143 15.0805 20.5417 15.3879 20.5417 15.7083C20.5417 16.0288 20.4143 16.3361 20.1877 16.5628C19.9611 16.7894 19.6538 16.9167 19.3333 16.9167H13.2917C12.9712 16.9167 12.6638 16.7894 12.4372 16.5628C12.2106 16.3361 12.0833 16.0288 12.0833 15.7083V9.66667Z" fill="black"/>
</svg>
