<svg width="32" height="32" viewBox="0 0 32 32" fill="none" xmlns="http://www.w3.org/2000/svg">
<path fill-rule="evenodd" clip-rule="evenodd" d="M15.1142 3.00345C15.6193 2.5544 16.3806 2.5544 16.8858 3.00345L28.8858 13.6701C29.4362 14.1593 29.4857 15.0021 28.9965 15.5525C28.5073 16.1029 27.6645 16.1524 27.1142 15.6632L26.6666 15.2654V26.6667C26.6666 28.1394 25.4727 29.3333 24 29.3333H7.99997C6.52721 29.3333 5.33331 28.1394 5.33331 26.6667V15.2654L4.88579 15.6632C4.33542 16.1524 3.49265 16.1029 3.00343 15.5525C2.5142 15.0021 2.56378 14.1593 3.11416 13.6701L15.1142 3.00345ZM7.99997 12.8951V26.6667H12V17.3333C12 15.8606 13.1939 14.6667 14.6666 14.6667H17.3333C18.8061 14.6667 20 15.8606 20 17.3333V26.6667H24V12.8951L16 5.78394L7.99997 12.8951ZM17.3333 26.6667V17.3333H14.6666V26.6667H17.3333Z" fill="black"/>
</svg>
