<svg width="32" height="32" viewBox="0 0 32 32" fill="none" xmlns="http://www.w3.org/2000/svg">
<path fill-rule="evenodd" clip-rule="evenodd" d="M15.1142 3.00345C15.6194 2.5544 16.3806 2.5544 16.8858 3.00345L28.8858 13.6701C29.4362 14.1593 29.4858 15.0021 28.9966 15.5525C28.5073 16.1029 27.6646 16.1524 27.1142 15.6632L26.6667 15.2654V26.6667C26.6667 28.1394 25.4728 29.3333 24 29.3333H8C6.52725 29.3333 5.33334 28.1394 5.33334 26.6667V15.2654L4.88582 15.6632C4.33545 16.1524 3.49268 16.1029 3.00346 15.5525C2.51423 15.0021 2.56381 14.1593 3.11419 13.6701L15.1142 3.00345ZM8 12.8951V26.6667H12V17.3333C12 15.8606 13.1939 14.6667 14.6667 14.6667H17.3333C18.8061 14.6667 20 15.8606 20 17.3333V26.6667H24V12.8951L16 5.78394L8 12.8951ZM17.3333 26.6667V17.3333H14.6667V26.6667H17.3333Z" fill="black"/>
</svg>
