<svg width="2512" height="78" viewBox="0 0 2512 78" fill="none" xmlns="http://www.w3.org/2000/svg">
<rect width="2512" height="78" fill="white"/>
<path fill-rule="evenodd" clip-rule="evenodd" d="M71.7516 35.6471L69.866 33.7614L58.3352 45.2922L57.4288 48.0843L60.2208 47.1778L71.7516 35.6471ZM61.6535 49.5164L53.2773 52.2357L55.9966 43.8595L69.866 29.9902L75.5228 35.6471L61.6535 49.5164Z" fill="black"/>
<path fill-rule="evenodd" clip-rule="evenodd" d="M77.4085 26.219C76.3671 25.1776 74.6786 25.1776 73.6373 26.219L71.7516 28.1046L77.4085 33.7614L79.2941 31.8758C80.3355 30.8344 80.3355 29.146 79.2941 28.1046L77.4085 26.219Z" fill="black"/>
<path d="M145.333 47C144.597 47 144 46.403 144 45.6667L144 36.3333C144 35.597 144.597 35 145.333 35C146.07 35 146.667 35.597 146.667 36.3333L146.667 45.6667C146.667 46.403 146.07 47 145.333 47Z" fill="black"/>
<path d="M149.333 45.6667C149.333 46.403 149.93 47 150.667 47C151.403 47 152 46.403 152 45.6667V36.3333C152 35.597 151.403 35 150.667 35C149.93 35 149.333 35.597 149.333 36.3333V45.6667Z" fill="black"/>
<path fill-rule="evenodd" clip-rule="evenodd" d="M142.871 27.7843L141.867 29.6667H137.333C136.597 29.6667 136 30.2636 136 31C136 31.7364 136.597 32.3333 137.333 32.3333H137.409L138.502 51.0776C138.543 51.7827 139.127 52.3333 139.833 52.3333H156.167C156.873 52.3333 157.457 51.7827 157.498 51.0776L158.591 32.3333H158.667C159.403 32.3333 160 31.7364 160 31C160 30.2636 159.403 29.6667 158.667 29.6667H154.133L153.129 27.7843C152.434 26.4809 151.077 25.6667 149.6 25.6667H146.4C144.923 25.6667 143.566 26.4809 142.871 27.7843ZM146.4 28.3333C145.908 28.3333 145.455 28.6047 145.224 29.0392L144.889 29.6667H151.111L150.776 29.0392C150.545 28.6047 150.092 28.3333 149.6 28.3333H146.4ZM155.92 32.3333H140.08L141.091 49.6667H154.909L155.92 32.3333Z" fill="black"/>
<path d="M230 36.5C230.433 36.5 230.792 36.3583 231.075 36.075C231.358 35.7917 231.5 35.4333 231.5 35C231.5 34.5667 231.358 34.2083 231.075 33.925C230.792 33.6417 230.433 33.5 230 33.5C229.567 33.5 229.208 33.6417 228.925 33.925C228.642 34.2083 228.5 34.5667 228.5 35C228.5 35.4333 228.642 35.7917 228.925 36.075C229.208 36.3583 229.567 36.5 230 36.5ZM219 42V28V42ZM219 44C218.45 44 217.979 43.8043 217.587 43.413C217.196 43.021 217 42.55 217 42V28C217 27.45 217.196 26.979 217.587 26.587C217.979 26.1957 218.45 26 219 26H233C233.55 26 234.021 26.1957 234.413 26.587C234.804 26.979 235 27.45 235 28V30.5H233V28H219V42H233V39.5H235V42C235 42.55 234.804 43.021 234.413 43.413C234.021 43.8043 233.55 44 233 44H219ZM227 40C226.45 40 225.979 39.8043 225.588 39.413C225.196 39.021 225 38.55 225 38V32C225 31.45 225.196 30.979 225.588 30.587C225.979 30.1957 226.45 30 227 30H234C234.55 30 235.021 30.1957 235.413 30.587C235.804 30.979 236 31.45 236 32V38C236 38.55 235.804 39.021 235.413 39.413C235.021 39.8043 234.55 40 234 40H227ZM234 38V32H227V38H234Z" fill="black"/>
<path d="M297 40H295V33H297V40ZM301 40H299V30H301V40ZM305 40H303V36H305V40ZM307 42H293V28H307V42.1M307 26H293C291.9 26 291 26.9 291 28V42C291 43.1 291.9 44 293 44H307C308.1 44 309 43.1 309 42V28C309 26.9 308.1 26 307 26Z" fill="black"/>
<path d="M378.719 42.752L378.079 37.628C377.988 36.9022 377.636 36.2346 377.087 35.7506C376.539 35.2667 375.832 34.9997 375.101 35H372.897C372.166 35.0002 371.46 35.2674 370.912 35.7513C370.364 36.2352 370.012 36.9026 369.921 37.628L369.28 42.752C369.245 43.0335 369.27 43.3193 369.354 43.5903C369.437 43.8614 369.578 44.1116 369.766 44.3242C369.954 44.5368 370.184 44.707 370.443 44.8235C370.702 44.94 370.982 45.0002 371.266 45H376.734C377.018 45.0001 377.298 44.9398 377.557 44.8232C377.815 44.7066 378.046 44.5364 378.234 44.3238C378.421 44.1112 378.562 43.8611 378.645 43.5901C378.729 43.3191 378.754 43.0334 378.719 42.752V42.752Z" stroke="black" stroke-width="2" stroke-linecap="round" stroke-linejoin="round"/>
<path d="M374 31C375.657 31 377 29.6569 377 28C377 26.3431 375.657 25 374 25C372.343 25 371 26.3431 371 28C371 29.6569 372.343 31 374 31Z" stroke="black" stroke-width="2"/>
<path d="M366 34C367.105 34 368 33.1046 368 32C368 30.8954 367.105 30 366 30C364.895 30 364 30.8954 364 32C364 33.1046 364.895 34 366 34Z" stroke="black" stroke-width="2"/>
<path d="M382 34C383.105 34 384 33.1046 384 32C384 30.8954 383.105 30 382 30C380.895 30 380 30.8954 380 32C380 33.1046 380.895 34 382 34Z" stroke="black" stroke-width="2"/>
<path d="M366 37H365.694C365.221 36.9999 364.762 37.1678 364.401 37.4738C364.04 37.7798 363.799 38.204 363.721 38.671L363.388 40.671C363.34 40.9575 363.355 41.2511 363.433 41.5311C363.51 41.8112 363.647 42.0711 363.835 42.2928C364.023 42.5144 364.256 42.6925 364.52 42.8146C364.783 42.9368 365.071 43 365.361 43H369M382 37H382.306C382.779 36.9999 383.238 37.1678 383.599 37.4738C383.96 37.7798 384.201 38.204 384.279 38.671L384.612 40.671C384.66 40.9575 384.645 41.2511 384.567 41.5311C384.49 41.8112 384.353 42.0711 384.165 42.2928C383.978 42.5144 383.744 42.6925 383.48 42.8146C383.217 42.9368 382.93 43 382.639 43H379" stroke="black" stroke-width="2" stroke-linecap="round" stroke-linejoin="round"/>
<path fill-rule="evenodd" clip-rule="evenodd" d="M440.02 40.8514C439.783 40.5084 439.589 40.2104 439.441 39.9748C439.576 39.7434 439.753 39.4526 439.97 39.1187C440.549 38.2276 441.409 37.042 442.531 35.8609C444.794 33.4787 447.989 31.25 452 31.25C456.001 31.25 459.065 33.4685 461.196 35.8362C462.254 37.0119 463.052 38.1927 463.584 39.0806C463.796 39.4332 463.964 39.7375 464.09 39.9742C463.952 40.2146 463.766 40.5259 463.534 40.8874C462.961 41.7809 462.114 42.9686 461.02 44.1512C458.805 46.5454 455.74 48.75 452 48.75C448.249 48.75 445.054 46.5343 442.707 44.1274C441.55 42.9399 440.64 41.7478 440.02 40.8514ZM466.639 39.4861C466.64 39.4866 466.64 39.487 465.5 40L466.618 40.5599L466.617 40.561L466.616 40.5638L466.611 40.5723L466.597 40.5999C466.585 40.6229 466.569 40.6553 466.547 40.6962C466.504 40.7782 466.441 40.8947 466.359 41.041C466.195 41.3335 465.954 41.7456 465.638 42.2376C465.008 43.2191 464.074 44.5314 462.855 45.8488C460.445 48.4546 456.76 51.25 452 51.25C447.251 51.25 443.446 48.4657 440.918 45.8726C439.638 44.5601 438.641 43.2522 437.964 42.2736C437.625 41.7831 437.364 41.3724 437.186 41.0812C437.097 40.9355 437.029 40.8195 436.982 40.7381C436.958 40.6974 436.94 40.6653 436.927 40.6425L436.912 40.6153L436.907 40.607L436.905 40.6024L438 40C436.882 39.441 436.882 39.4406 436.882 39.4401L436.883 39.4389L436.884 39.436L436.889 39.4274L436.903 39.3994C436.915 39.3761 436.932 39.3435 436.954 39.3023C436.998 39.2199 437.061 39.1028 437.144 38.956C437.309 38.6626 437.553 38.2494 437.874 37.7563C438.513 36.7724 439.466 35.458 440.719 34.1391C443.206 31.5213 447.011 28.75 452 28.75C456.999 28.75 460.685 31.5315 463.054 34.1638C464.246 35.4881 465.136 36.8073 465.728 37.7944C466.025 38.2892 466.249 38.7039 466.401 38.9986C466.477 39.1461 466.534 39.2638 466.574 39.3468C466.594 39.3883 466.61 39.4211 466.62 39.4447L466.634 39.4731L466.638 39.4819L466.639 39.4849L466.639 39.4861ZM436.905 40.6024C436.707 40.2425 436.698 39.8083 436.882 39.441L438 40C436.912 40.5984 436.905 40.602 436.905 40.6024L436.905 40.6024ZM466.618 40.5599C466.786 40.224 466.794 39.8295 466.64 39.487L465.5 40C466.618 40.559 466.618 40.5594 466.618 40.5599ZM455.5 40C455.5 41.933 453.933 43.5 452 43.5C450.067 43.5 448.5 41.933 448.5 40C448.5 38.067 450.067 36.5 452 36.5C453.933 36.5 455.5 38.067 455.5 40ZM458 40C458 43.3137 455.314 46 452 46C448.686 46 446 43.3137 446 40C446 36.6863 448.686 34 452 34C455.314 34 458 36.6863 458 40Z" fill="black"/>
<path d="M528.667 31C527.93 31 527.333 31.597 527.333 32.3333C527.333 33.0697 527.93 33.6667 528.667 33.6667H539.333C540.07 33.6667 540.667 33.0697 540.667 32.3333C540.667 31.597 540.07 31 539.333 31H528.667Z" fill="black"/>
<path d="M527.333 37.6667C527.333 36.9303 527.93 36.3333 528.667 36.3333H539.333C540.07 36.3333 540.667 36.9303 540.667 37.6667C540.667 38.403 540.07 39 539.333 39H528.667C527.93 39 527.333 38.403 527.333 37.6667Z" fill="black"/>
<path d="M528.667 41.6667C527.93 41.6667 527.333 42.2636 527.333 43C527.333 43.7364 527.93 44.3333 528.667 44.3333H534C534.736 44.3333 535.333 43.7364 535.333 43C535.333 42.2636 534.736 41.6667 534 41.6667H528.667Z" fill="black"/>
<path fill-rule="evenodd" clip-rule="evenodd" d="M524.667 25.6667C523.194 25.6667 522 26.8606 522 28.3333V49.6667C522 51.1394 523.194 52.3333 524.667 52.3333H543.333C544.806 52.3333 546 51.1394 546 49.6667V28.3333C546 26.8606 544.806 25.6667 543.333 25.6667H524.667ZM543.333 28.3333H524.667L524.667 49.6667H536.083L543.333 41.812V28.3333ZM543.333 49.6667H539.712L543.333 45.7435V49.6667Z" fill="black"/>
<path d="M610.667 40.3333C611.403 40.3333 612 39.7364 612 39C612 38.2636 611.403 37.6667 610.667 37.6667C609.93 37.6667 609.333 38.2636 609.333 39C609.333 39.7364 609.93 40.3333 610.667 40.3333Z" fill="black"/>
<path d="M617.333 39C617.333 39.7364 616.736 40.3333 616 40.3333C615.264 40.3333 614.667 39.7364 614.667 39C614.667 38.2636 615.264 37.6667 616 37.6667C616.736 37.6667 617.333 38.2636 617.333 39Z" fill="black"/>
<path d="M621.333 40.3333C622.07 40.3333 622.667 39.7364 622.667 39C622.667 38.2636 622.07 37.6667 621.333 37.6667C620.597 37.6667 620 38.2636 620 39C620 39.7364 620.597 40.3333 621.333 40.3333Z" fill="black"/>
<path d="M612 44.3333C612 45.0697 611.403 45.6667 610.667 45.6667C609.93 45.6667 609.333 45.0697 609.333 44.3333C609.333 43.597 609.93 43 610.667 43C611.403 43 612 43.597 612 44.3333Z" fill="black"/>
<path d="M616 45.6667C616.736 45.6667 617.333 45.0697 617.333 44.3333C617.333 43.597 616.736 43 616 43C615.264 43 614.667 43.597 614.667 44.3333C614.667 45.0697 615.264 45.6667 616 45.6667Z" fill="black"/>
<path fill-rule="evenodd" clip-rule="evenodd" d="M610.667 27C610.667 26.2636 610.07 25.6667 609.333 25.6667C608.597 25.6667 608 26.2636 608 27H605.333C603.861 27 602.667 28.1939 602.667 29.6667V48.3333C602.667 49.8061 603.861 51 605.333 51H626.667C628.139 51 629.333 49.8061 629.333 48.3333V29.6667C629.333 28.1939 628.139 27 626.667 27H624C624 26.2636 623.403 25.6667 622.667 25.6667C621.93 25.6667 621.333 26.2636 621.333 27H610.667ZM605.333 32.3333V29.6667H626.667V32.3333H605.333ZM605.333 35V48.3333H618.895L626.667 40.5621V35H605.333ZM626.667 44.3334L622.667 48.3333H626.667V44.3334Z" fill="black"/>
<path d="M692.667 31C691.93 31 691.333 31.597 691.333 32.3333C691.333 33.0697 691.93 33.6667 692.667 33.6667H703.333C704.07 33.6667 704.667 33.0697 704.667 32.3333C704.667 31.597 704.07 31 703.333 31H692.667Z" fill="black"/>
<path d="M691.333 37.6667C691.333 36.9303 691.93 36.3333 692.667 36.3333H703.333C704.07 36.3333 704.667 36.9303 704.667 37.6667C704.667 38.403 704.07 39 703.333 39H692.667C691.93 39 691.333 38.403 691.333 37.6667Z" fill="black"/>
<path d="M692.667 41.6667C691.93 41.6667 691.333 42.2636 691.333 43C691.333 43.7364 691.93 44.3333 692.667 44.3333H698C698.736 44.3333 699.333 43.7364 699.333 43C699.333 42.2636 698.736 41.6667 698 41.6667H692.667Z" fill="black"/>
<path fill-rule="evenodd" clip-rule="evenodd" d="M688.667 25.6667C687.194 25.6667 686 26.8606 686 28.3333V49.6667C686 51.1394 687.194 52.3333 688.667 52.3333H707.333C708.806 52.3333 710 51.1394 710 49.6667V28.3333C710 26.8606 708.806 25.6667 707.333 25.6667H688.667ZM707.333 28.3333H688.667L688.667 49.6667H700.083L707.333 41.812V28.3333ZM707.333 49.6667H703.712L707.333 45.7435V49.6667Z" fill="black"/>
<path fill-rule="evenodd" clip-rule="evenodd" d="M779.114 26.0035C779.619 25.5544 780.381 25.5544 780.886 26.0035L792.886 36.6701C793.436 37.1593 793.486 38.0021 792.997 38.5525C792.507 39.1029 791.665 39.1524 791.114 38.6632L790.667 38.2654V49.6667C790.667 51.1394 789.473 52.3333 788 52.3333H772C770.527 52.3333 769.333 51.1394 769.333 49.6667V38.2654L768.886 38.6632C768.335 39.1524 767.493 39.1029 767.003 38.5525C766.514 38.0021 766.564 37.1593 767.114 36.6701L779.114 26.0035ZM772 35.8951V49.6667H776V40.3333C776 38.8606 777.194 37.6667 778.667 37.6667H781.333C782.806 37.6667 784 38.8606 784 40.3333V49.6667H788V35.8951L780 28.7839L772 35.8951ZM781.333 49.6667V40.3333H778.667V49.6667H781.333Z" fill="black"/>
<path fill-rule="evenodd" clip-rule="evenodd" d="M854 33.6667C856.209 33.6667 858 31.8758 858 29.6667C858 27.4575 856.209 25.6667 854 25.6667C851.791 25.6667 850 27.4575 850 29.6667C850 31.8758 851.791 33.6667 854 33.6667ZM854 31C854.736 31 855.333 30.403 855.333 29.6667C855.333 28.9303 854.736 28.3333 854 28.3333C853.264 28.3333 852.667 28.9303 852.667 29.6667C852.667 30.403 853.264 31 854 31Z" fill="black"/>
<path fill-rule="evenodd" clip-rule="evenodd" d="M866.228 40.3333C866.777 41.8869 868.258 43 870 43C872.209 43 874 41.2091 874 39C874 36.7909 872.209 35 870 35C868.258 35 866.777 36.1131 866.228 37.6667H851.333C850.597 37.6667 850 38.2636 850 39C850 39.7364 850.597 40.3333 851.333 40.3333H866.228ZM870 40.3333C870.736 40.3333 871.333 39.7364 871.333 39C871.333 38.2636 870.736 37.6667 870 37.6667C869.264 37.6667 868.667 38.2636 868.667 39C868.667 39.7364 869.264 40.3333 870 40.3333Z" fill="black"/>
<path fill-rule="evenodd" clip-rule="evenodd" d="M860.667 52.3333C858.925 52.3333 857.443 51.2203 856.894 49.6667H851.333C850.597 49.6667 850 49.0697 850 48.3333C850 47.597 850.597 47 851.333 47H856.894C857.443 45.4464 858.925 44.3333 860.667 44.3333C862.876 44.3333 864.667 46.1242 864.667 48.3333C864.667 50.5425 862.876 52.3333 860.667 52.3333ZM862 48.3333C862 49.0697 861.403 49.6667 860.667 49.6667C859.93 49.6667 859.333 49.0697 859.333 48.3333C859.333 47.597 859.93 47 860.667 47C861.403 47 862 47.597 862 48.3333Z" fill="black"/>
<path d="M860.667 29.6667C860.667 28.9303 861.264 28.3333 862 28.3333L872.667 28.3333C873.403 28.3333 874 28.9303 874 29.6667C874 30.403 873.403 31 872.667 31L862 31C861.264 31 860.667 30.403 860.667 29.6667Z" fill="black"/>
<path d="M868.667 47C867.93 47 867.333 47.597 867.333 48.3333C867.333 49.0697 867.93 49.6667 868.667 49.6667H872.667C873.403 49.6667 874 49.0697 874 48.3333C874 47.597 873.403 47 872.667 47H868.667Z" fill="black"/>
<path fill-rule="evenodd" clip-rule="evenodd" d="M932 51C932 51.7364 932.597 52.3333 933.333 52.3333C934.07 52.3333 934.667 51.7364 934.667 51V45.6667H942.667V49C942.667 49.7364 943.264 50.3333 944 50.3333H956C956.423 50.3333 956.821 50.1325 957.073 49.7921C957.324 49.4518 957.399 49.0123 957.274 48.6079L954.733 40.3496L957.265 32.755C957.4 32.3484 957.332 31.9014 957.082 31.5537C956.831 31.206 956.429 31 956 31H949.333V29.6667C949.333 28.9303 948.736 28.3333 948 28.3333H934.667L934.667 27C934.667 26.2636 934.07 25.6667 933.333 25.6667C932.597 25.6667 932 26.2636 932 27V51ZM934.667 31V43H946.667V31H934.667ZM949.333 44.3333V33.6667H954.15L952.068 39.9117C951.981 40.1753 951.977 40.4598 952.059 40.7254L954.195 47.6667H945.333V45.6667H948C948.736 45.6667 949.333 45.0697 949.333 44.3333Z" fill="black"/>
<path d="M1014.5 36.5C1014.08 36.5 1013.73 36.354 1013.44 36.062C1013.15 35.7707 1013 35.4167 1013 35C1013 34.5833 1013.15 34.2293 1013.44 33.938C1013.73 33.646 1014.08 33.5 1014.5 33.5C1014.92 33.5 1015.27 33.646 1015.56 33.938C1015.85 34.2293 1016 34.5833 1016 35C1016 35.4167 1015.85 35.7707 1015.56 36.062C1015.27 36.354 1014.92 36.5 1014.5 36.5ZM1014.5 30.5C1014.08 30.5 1013.73 30.354 1013.44 30.062C1013.15 29.7707 1013 29.4167 1013 29C1013 28.5833 1013.15 28.2293 1013.44 27.938C1013.73 27.646 1014.08 27.5 1014.5 27.5C1014.92 27.5 1015.27 27.646 1015.56 27.938C1015.85 28.2293 1016 28.5833 1016 29C1016 29.4167 1015.85 29.7707 1015.56 30.062C1015.27 30.354 1014.92 30.5 1014.5 30.5ZM1014.5 42.5C1014.08 42.5 1013.73 42.354 1013.44 42.062C1013.15 41.7707 1013 41.4167 1013 41C1013 40.5833 1013.15 40.2293 1013.44 39.938C1013.73 39.646 1014.08 39.5 1014.5 39.5C1014.92 39.5 1015.27 39.646 1015.56 39.938C1015.85 40.2293 1016 40.5833 1016 41C1016 41.4167 1015.85 41.7707 1015.56 42.062C1015.27 42.354 1014.92 42.5 1014.5 42.5ZM1019 42C1018.72 42 1018.48 41.904 1018.29 41.712C1018.1 41.5207 1018 41.2833 1018 41C1018 40.7167 1018.1 40.4793 1018.29 40.288C1018.48 40.096 1018.72 40 1019 40H1030C1030.28 40 1030.52 40.096 1030.71 40.288C1030.9 40.4793 1031 40.7167 1031 41C1031 41.2833 1030.9 41.5207 1030.71 41.712C1030.52 41.904 1030.28 42 1030 42H1019ZM1019 36C1018.72 36 1018.48 35.904 1018.29 35.712C1018.1 35.5207 1018 35.2833 1018 35C1018 34.7167 1018.1 34.479 1018.29 34.287C1018.48 34.0957 1018.72 34 1019 34H1030C1030.28 34 1030.52 34.0957 1030.71 34.287C1030.9 34.479 1031 34.7167 1031 35C1031 35.2833 1030.9 35.5207 1030.71 35.712C1030.52 35.904 1030.28 36 1030 36H1019ZM1019 30C1018.72 30 1018.48 29.9043 1018.29 29.713C1018.1 29.521 1018 29.2833 1018 29C1018 28.7167 1018.1 28.479 1018.29 28.287C1018.48 28.0957 1018.72 28 1019 28H1030C1030.28 28 1030.52 28.0957 1030.71 28.287C1030.9 28.479 1031 28.7167 1031 29C1031 29.2833 1030.9 29.521 1030.71 29.713C1030.52 29.9043 1030.28 30 1030 30H1019Z" fill="black"/>
<path d="M1092 29C1092 29.5304 1091.79 30.0391 1091.41 30.4142C1091.04 30.7893 1090.53 31 1090 31C1089.47 31 1088.96 30.7893 1088.59 30.4142C1088.21 30.0391 1088 29.5304 1088 29C1088 28.4696 1088.21 27.9609 1088.59 27.5858C1088.96 27.2107 1089.47 27 1090 27C1090.53 27 1091.04 27.2107 1091.41 27.5858C1091.79 27.9609 1092 28.4696 1092 29ZM1092 35C1092 35.5304 1091.79 36.0391 1091.41 36.4142C1091.04 36.7893 1090.53 37 1090 37C1089.47 37 1088.96 36.7893 1088.59 36.4142C1088.21 36.0391 1088 35.5304 1088 35C1088 34.4696 1088.21 33.9609 1088.59 33.5858C1088.96 33.2107 1089.47 33 1090 33C1090.53 33 1091.04 33.2107 1091.41 33.5858C1091.79 33.9609 1092 34.4696 1092 35ZM1090 43C1090.53 43 1091.04 42.7893 1091.41 42.4142C1091.79 42.0391 1092 41.5304 1092 41C1092 40.4696 1091.79 39.9609 1091.41 39.5858C1091.04 39.2107 1090.53 39 1090 39C1089.47 39 1088.96 39.2107 1088.59 39.5858C1088.21 39.9609 1088 40.4696 1088 41C1088 41.5304 1088.21 42.0391 1088.59 42.4142C1088.96 42.7893 1089.47 43 1090 43ZM1098 29C1098 29.5304 1097.79 30.0391 1097.41 30.4142C1097.04 30.7893 1096.53 31 1096 31C1095.47 31 1094.96 30.7893 1094.59 30.4142C1094.21 30.0391 1094 29.5304 1094 29C1094 28.4696 1094.21 27.9609 1094.59 27.5858C1094.96 27.2107 1095.47 27 1096 27C1096.53 27 1097.04 27.2107 1097.41 27.5858C1097.79 27.9609 1098 28.4696 1098 29ZM1096 37C1096.53 37 1097.04 36.7893 1097.41 36.4142C1097.79 36.0391 1098 35.5304 1098 35C1098 34.4696 1097.79 33.9609 1097.41 33.5858C1097.04 33.2107 1096.53 33 1096 33C1095.47 33 1094.96 33.2107 1094.59 33.5858C1094.21 33.9609 1094 34.4696 1094 35C1094 35.5304 1094.21 36.0391 1094.59 36.4142C1094.96 36.7893 1095.47 37 1096 37ZM1098 41C1098 41.5304 1097.79 42.0391 1097.41 42.4142C1097.04 42.7893 1096.53 43 1096 43C1095.47 43 1094.96 42.7893 1094.59 42.4142C1094.21 42.0391 1094 41.5304 1094 41C1094 40.4696 1094.21 39.9609 1094.59 39.5858C1094.96 39.2107 1095.47 39 1096 39C1096.53 39 1097.04 39.2107 1097.41 39.5858C1097.79 39.9609 1098 40.4696 1098 41ZM1102 31C1102.53 31 1103.04 30.7893 1103.41 30.4142C1103.79 30.0391 1104 29.5304 1104 29C1104 28.4696 1103.79 27.9609 1103.41 27.5858C1103.04 27.2107 1102.53 27 1102 27C1101.47 27 1100.96 27.2107 1100.59 27.5858C1100.21 27.9609 1100 28.4696 1100 29C1100 29.5304 1100.21 30.0391 1100.59 30.4142C1100.96 30.7893 1101.47 31 1102 31ZM1104 35C1104 35.5304 1103.79 36.0391 1103.41 36.4142C1103.04 36.7893 1102.53 37 1102 37C1101.47 37 1100.96 36.7893 1100.59 36.4142C1100.21 36.0391 1100 35.5304 1100 35C1100 34.4696 1100.21 33.9609 1100.59 33.5858C1100.96 33.2107 1101.47 33 1102 33C1102.53 33 1103.04 33.2107 1103.41 33.5858C1103.79 33.9609 1104 34.4696 1104 35ZM1102 43C1102.53 43 1103.04 42.7893 1103.41 42.4142C1103.79 42.0391 1104 41.5304 1104 41C1104 40.4696 1103.79 39.9609 1103.41 39.5858C1103.04 39.2107 1102.53 39 1102 39C1101.47 39 1100.96 39.2107 1100.59 39.5858C1100.21 39.9609 1100 40.4696 1100 41C1100 41.5304 1100.21 42.0391 1100.59 42.4142C1100.96 42.7893 1101.47 43 1102 43Z" fill="black"/>
<path d="M1167.33 44.3333C1167.33 45.0697 1167.93 45.6667 1168.67 45.6667C1169.4 45.6667 1170 45.0697 1170 44.3333V41.6667C1170 40.9303 1169.4 40.3333 1168.67 40.3333C1167.93 40.3333 1167.33 40.9303 1167.33 41.6667V44.3333Z" fill="black"/>
<path d="M1174 45.6667C1173.26 45.6667 1172.67 45.0697 1172.67 44.3333V33.6667C1172.67 32.9303 1173.26 32.3333 1174 32.3333C1174.74 32.3333 1175.33 32.9303 1175.33 33.6667V44.3333C1175.33 45.0697 1174.74 45.6667 1174 45.6667Z" fill="black"/>
<path d="M1178 44.3333C1178 45.0697 1178.6 45.6667 1179.33 45.6667C1180.07 45.6667 1180.67 45.0697 1180.67 44.3333V36.3333C1180.67 35.597 1180.07 35 1179.33 35C1178.6 35 1178 35.597 1178 36.3333V44.3333Z" fill="black"/>
<path fill-rule="evenodd" clip-rule="evenodd" d="M1160.67 29.6667C1160.67 28.1939 1161.86 27 1163.33 27H1184.67C1186.14 27 1187.33 28.1939 1187.33 29.6667V48.3333C1187.33 49.8061 1186.14 51 1184.67 51H1163.33C1161.86 51 1160.67 49.8061 1160.67 48.3333V29.6667ZM1163.33 29.6667H1184.67V48.3333H1163.33V29.6667Z" fill="black"/>
<rect x="1245.5" y="28.5" width="5" height="5" rx="2.5" fill="black"/>
<path d="M1322 28.3333C1316.12 28.3333 1311.33 33.132 1311.33 39.0671C1311.33 40.7502 1311.72 42.3391 1312.4 43.7533C1312.72 44.4164 1312.44 45.2136 1311.78 45.5339C1311.12 45.8542 1310.32 45.5764 1310 44.9133C1309.15 43.1448 1308.67 41.1601 1308.67 39.0671C1308.67 31.6733 1314.63 25.6667 1322 25.6667C1329.37 25.6667 1335.33 31.6733 1335.33 39.0671C1335.33 41.1601 1334.85 43.1448 1334 44.9133C1333.68 45.5764 1332.88 45.8542 1332.22 45.5339C1331.56 45.2136 1331.28 44.4164 1331.6 43.7533C1332.28 42.3391 1332.67 40.7502 1332.67 39.0671C1332.67 33.132 1327.88 28.3333 1322 28.3333Z" fill="black"/>
<path fill-rule="evenodd" clip-rule="evenodd" d="M1325.35 44.7659C1327.33 43.611 1328.67 41.4613 1328.67 39C1328.67 35.3181 1325.68 32.3333 1322 32.3333C1318.32 32.3333 1315.33 35.3181 1315.33 39C1315.33 41.4613 1316.67 43.611 1318.65 44.7659C1316.61 45.3189 1315.05 46.3266 1313.92 47.3395C1313.08 48.0882 1312.48 48.8373 1312.08 49.4044C1311.89 49.6887 1311.74 49.9295 1311.64 50.105C1311.59 50.1928 1311.55 50.2645 1311.52 50.3173C1311.5 50.3438 1311.49 50.3655 1311.48 50.3822L1311.47 50.4035L1311.47 50.4113L1311.47 50.4144L1311.47 50.4158C1311.47 50.4165 1311.47 50.4171 1312.67 51L1311.47 50.4171C1311.15 51.0794 1311.42 51.8772 1312.08 52.1992C1312.74 52.5202 1313.54 52.2467 1313.86 51.5883L1313.86 51.5868L1313.88 51.5629C1313.89 51.5376 1313.91 51.4947 1313.95 51.4367C1314.01 51.3205 1314.12 51.1446 1314.27 50.9289C1314.57 50.496 1315.04 49.9118 1315.69 49.3272C1316.99 48.1693 1319.02 47 1322 47C1324.98 47 1327.01 48.1693 1328.31 49.3272C1328.96 49.9118 1329.43 50.496 1329.73 50.9289C1329.88 51.1446 1329.99 51.3205 1330.05 51.4367C1330.09 51.4947 1330.11 51.5376 1330.12 51.5629L1330.14 51.5868L1330.14 51.5883C1330.46 52.2467 1331.26 52.5202 1331.92 52.1992C1332.58 51.8772 1332.85 51.0794 1332.53 50.4171L1331.33 51C1332.53 50.4171 1332.53 50.4165 1332.53 50.4158L1332.53 50.4113L1332.53 50.4035L1332.52 50.3822C1332.51 50.3655 1332.5 50.3438 1332.48 50.3173C1332.45 50.2645 1332.41 50.1928 1332.36 50.105C1332.26 49.9295 1332.11 49.6887 1331.92 49.4044C1331.52 48.8373 1330.92 48.0882 1330.08 47.3395C1328.95 46.3266 1327.39 45.3189 1325.35 44.7659ZM1322 43C1324.21 43 1326 41.2091 1326 39C1326 36.7909 1324.21 35 1322 35C1319.79 35 1318 36.7909 1318 39C1318 41.2091 1319.79 43 1322 43Z" fill="black"/>
<rect width="32" height="32" transform="translate(1388 23)" fill="white"/>
<path fill-rule="evenodd" clip-rule="evenodd" d="M1404 27C1399.23 27 1395.2 31.2094 1395.2 36.6C1395.2 39.2917 1396.36 42.0498 1397.96 44.5501C1399.55 47.0351 1401.49 49.155 1402.91 50.5448C1403.53 51.1516 1404.47 51.1516 1405.09 50.5448C1406.51 49.155 1408.45 47.0351 1410.04 44.5501C1411.64 42.0498 1412.8 39.2917 1412.8 36.6C1412.8 31.2094 1408.77 27 1404 27ZM1392.8 36.6C1392.8 30.0612 1397.73 24.6 1404 24.6C1410.27 24.6 1415.2 30.0612 1415.2 36.6C1415.2 39.9457 1413.78 43.1637 1412.07 45.8424C1410.34 48.5365 1408.26 50.7987 1406.77 52.2584C1405.22 53.7804 1402.78 53.7804 1401.23 52.2584C1399.74 50.7987 1397.66 48.5365 1395.93 45.8424C1394.22 43.1637 1392.8 39.9457 1392.8 36.6ZM1404 33.4068C1402.67 33.4068 1401.6 34.4813 1401.6 35.8068C1401.6 37.1323 1402.67 38.2068 1404 38.2068C1405.33 38.2068 1406.4 37.1323 1406.4 35.8068C1406.4 34.4813 1405.33 33.4068 1404 33.4068ZM1399.2 35.8068C1399.2 33.1558 1401.35 31.0068 1404 31.0068C1406.65 31.0068 1408.8 33.1558 1408.8 35.8068C1408.8 38.4578 1406.65 40.6068 1404 40.6068C1401.35 40.6068 1399.2 38.4578 1399.2 35.8068Z" fill="black"/>
<path d="M1487.33 32.3333C1487.33 31.597 1486.74 31 1486 31C1485.26 31 1484.67 31.597 1484.67 32.3333V39C1484.67 39.7364 1485.26 40.3333 1486 40.3333H1491.33C1492.07 40.3333 1492.67 39.7364 1492.67 39C1492.67 38.2636 1492.07 37.6667 1491.33 37.6667H1487.33V32.3333Z" fill="black"/>
<path fill-rule="evenodd" clip-rule="evenodd" d="M1499.33 39C1499.33 46.3638 1493.36 52.3333 1486 52.3333C1478.64 52.3333 1472.67 46.3638 1472.67 39C1472.67 31.6362 1478.64 25.6667 1486 25.6667C1493.36 25.6667 1499.33 31.6362 1499.33 39ZM1496.67 39C1496.67 44.891 1491.89 49.6667 1486 49.6667C1480.11 49.6667 1475.33 44.891 1475.33 39C1475.33 33.109 1480.11 28.3333 1486 28.3333C1491.89 28.3333 1496.67 33.109 1496.67 39Z" fill="black"/>
<path d="M1569.33 39.9273C1569.36 39.9095 1569.4 39.8884 1569.45 39.8631C1569.64 39.7765 1569.81 39.7289 1570.08 39.6573C1570.22 39.6166 1570.4 39.5683 1570.62 39.5006C1571.12 39.3492 1571.85 39.0941 1572.42 38.5C1573.04 37.8578 1573.33 36.9978 1573.33 35.963L1573.33 35.9497C1573.33 35.6407 1573.33 34.4319 1572.65 33.2733C1571.88 31.9779 1570.41 31 1568 31C1566.79 31 1565.8 31.2765 1565 31.7596C1564.2 32.2413 1563.67 32.8836 1563.33 33.5047C1562.99 34.1181 1562.83 34.7179 1562.75 35.155C1562.71 35.3763 1562.69 35.5641 1562.68 35.7024C1562.67 35.7717 1562.67 35.8293 1562.67 35.8733C1562.67 35.8952 1562.67 35.9138 1562.67 35.9289L1562.67 35.9487L1562.67 35.9565L1562.67 35.9599L1562.67 35.9615L1562.67 35.963C1562.67 36.6993 1563.26 37.2963 1564 37.2963C1564.73 37.2963 1565.33 36.7059 1565.33 35.9751L1565.33 35.972C1565.33 35.9627 1565.33 35.9415 1565.34 35.9116C1565.34 35.8514 1565.35 35.7556 1565.37 35.6367C1565.42 35.3932 1565.51 35.0856 1565.67 34.7916C1565.83 34.5052 1566.05 34.2402 1566.38 34.0413C1566.7 33.8439 1567.21 33.6667 1568 33.6667C1569.59 33.6667 1570.12 34.2443 1570.35 34.6341C1570.66 35.1434 1570.67 35.7306 1570.67 35.963C1570.67 36.4797 1570.54 36.6131 1570.51 36.6445C1570.43 36.7226 1570.27 36.8211 1569.85 36.9482C1569.78 36.969 1569.69 36.9934 1569.59 37.0217C1569.24 37.1181 1568.73 37.2582 1568.33 37.4428C1567.71 37.7317 1567.04 38.2394 1566.73 39.1741C1566.69 39.3091 1566.67 39.4504 1566.67 39.5926L1566.67 40.6663C1566.67 41.4027 1567.26 42 1568 42C1568.74 42 1569.33 41.403 1569.33 40.6667L1569.33 39.9273Z" fill="black"/>
<path d="M1568 47C1568.74 47 1569.33 46.403 1569.33 45.6667C1569.33 44.9303 1568.74 44.3333 1568 44.3333C1567.26 44.3333 1566.67 44.9303 1566.67 45.6667C1566.67 46.403 1567.26 47 1568 47Z" fill="black"/>
<path fill-rule="evenodd" clip-rule="evenodd" d="M1568 52.3333C1575.36 52.3333 1581.33 46.3638 1581.33 39C1581.33 31.6362 1575.36 25.6667 1568 25.6667C1560.64 25.6667 1554.67 31.6362 1554.67 39C1554.67 46.3638 1560.64 52.3333 1568 52.3333ZM1568 49.6667C1573.89 49.6667 1578.67 44.891 1578.67 39C1578.67 33.109 1573.89 28.3333 1568 28.3333C1562.11 28.3333 1557.33 33.109 1557.33 39C1557.33 44.891 1562.11 49.6667 1568 49.6667Z" fill="black"/>
<g clip-path="url(#clip0_2_413)">
<path d="M1634 47V44.9C1634 43.9222 1634.49 43.1387 1635.48 42.5493C1636.47 41.9609 1637.76 41.6667 1639.33 41.6667C1639.62 41.6667 1639.9 41.672 1640.17 41.6827C1640.43 41.6942 1640.69 41.7222 1640.93 41.7667C1640.62 42.2111 1640.39 42.6889 1640.23 43.2C1640.08 43.7111 1640 44.2556 1640 44.8333V47H1634ZM1642 47V44.8333C1642 43.3889 1642.74 42.2222 1644.22 41.3333C1645.69 40.4444 1647.62 40 1650 40C1652.4 40 1654.33 40.4444 1655.8 41.3333C1657.27 42.2222 1658 43.3889 1658 44.8333V47H1642ZM1660 47V44.8333C1660 44.2556 1659.93 43.7111 1659.78 43.2C1659.64 42.6889 1659.42 42.2111 1659.13 41.7667C1659.38 41.7222 1659.63 41.6942 1659.88 41.6827C1660.14 41.672 1660.4 41.6667 1660.67 41.6667C1662.27 41.6667 1663.56 41.9609 1664.53 42.5493C1665.51 43.1387 1666 43.9222 1666 44.9V47H1660ZM1650 42.6667C1648.73 42.6667 1647.6 42.8333 1646.6 43.1667C1645.6 43.5 1645.01 43.8889 1644.83 44.3333H1655.2C1655 43.8889 1654.41 43.5 1653.42 43.1667C1652.43 42.8333 1651.29 42.6667 1650 42.6667ZM1639.33 40.3333C1638.6 40.3333 1637.97 40.072 1637.45 39.5493C1636.93 39.0276 1636.67 38.4 1636.67 37.6667C1636.67 36.9111 1636.93 36.2778 1637.45 35.7667C1637.97 35.2556 1638.6 35 1639.33 35C1640.09 35 1640.72 35.2556 1641.23 35.7667C1641.74 36.2778 1642 36.9111 1642 37.6667C1642 38.4 1641.74 39.0276 1641.23 39.5493C1640.72 40.072 1640.09 40.3333 1639.33 40.3333ZM1660.67 40.3333C1659.93 40.3333 1659.31 40.072 1658.78 39.5493C1658.26 39.0276 1658 38.4 1658 37.6667C1658 36.9111 1658.26 36.2778 1658.78 35.7667C1659.31 35.2556 1659.93 35 1660.67 35C1661.42 35 1662.06 35.2556 1662.57 35.7667C1663.08 36.2778 1663.33 36.9111 1663.33 37.6667C1663.33 38.4 1663.08 39.0276 1662.57 39.5493C1662.06 40.072 1661.42 40.3333 1660.67 40.3333ZM1650 39C1648.89 39 1647.94 38.6111 1647.17 37.8333C1646.39 37.0556 1646 36.1111 1646 35C1646 33.8667 1646.39 32.9164 1647.17 32.1493C1647.94 31.3831 1648.89 31 1650 31C1651.13 31 1652.08 31.3831 1652.85 32.1493C1653.62 32.9164 1654 33.8667 1654 35C1654 36.1111 1653.62 37.0556 1652.85 37.8333C1652.08 38.6111 1651.13 39 1650 39ZM1650 33.6667C1649.62 33.6667 1649.31 33.7942 1649.05 34.0493C1648.79 34.3053 1648.67 34.6222 1648.67 35C1648.67 35.3778 1648.79 35.6942 1649.05 35.9493C1649.31 36.2053 1649.62 36.3333 1650 36.3333C1650.38 36.3333 1650.69 36.2053 1650.95 35.9493C1651.21 35.6942 1651.33 35.3778 1651.33 35C1651.33 34.6222 1651.21 34.3053 1650.95 34.0493C1650.69 33.7942 1650.38 33.6667 1650 33.6667Z" fill="black"/>
</g>
<path d="M1740 24.3333L1742.4 26.72L1737.05 32.0533L1738.95 33.9467L1744.28 28.6133L1746.67 31V24.3333M1732 33.6667C1726.85 33.6667 1722.67 37.84 1722.67 43C1722.67 45.4754 1723.65 47.8493 1725.4 49.5997C1727.15 51.35 1729.52 52.3333 1732 52.3333C1737.15 52.3333 1741.33 48.16 1741.33 43C1741.33 40.5246 1740.35 38.1507 1738.6 36.4003C1736.85 34.65 1734.48 33.6667 1732 33.6667ZM1732 36.5333C1735.56 36.5333 1738.47 39.4267 1738.47 43C1738.47 43.8492 1738.3 44.6901 1737.97 45.4747C1737.65 46.2593 1737.17 46.9721 1736.57 47.5726C1735.97 48.1731 1735.26 48.6494 1734.47 48.9744C1733.69 49.2994 1732.85 49.4667 1732 49.4667C1728.43 49.4667 1725.53 46.5733 1725.53 43C1725.53 41.2849 1726.21 39.6401 1727.43 38.4274C1728.64 37.2146 1730.28 36.5333 1732 36.5333ZM1730.67 39V43.92L1734.92 46.3733L1735.92 44.64L1732.67 42.76V39" fill="black"/>
<path d="M1800.95 24.0533L1799.05 25.9467L1804.4 31.28L1802 33.6667H1808.67V27L1806.28 29.4M1814 33.6667C1808.85 33.6667 1804.67 37.84 1804.67 43C1804.67 45.4754 1805.65 47.8493 1807.4 49.5997C1809.15 51.35 1811.52 52.3333 1814 52.3333C1819.15 52.3333 1823.33 48.16 1823.33 43C1823.33 40.5246 1822.35 38.1507 1820.6 36.4003C1818.85 34.65 1816.48 33.6667 1814 33.6667ZM1814 36.5333C1817.56 36.5333 1820.47 39.4267 1820.47 43C1820.47 43.8492 1820.3 44.6901 1819.97 45.4747C1819.65 46.2593 1819.17 46.9721 1818.57 47.5726C1817.97 48.1731 1817.26 48.6494 1816.47 48.9744C1815.69 49.2994 1814.85 49.4667 1814 49.4667C1810.43 49.4667 1807.53 46.5733 1807.53 43C1807.53 41.2849 1808.21 39.6401 1809.43 38.4274C1810.64 37.2146 1812.28 36.5333 1814 36.5333ZM1812.67 39V43.92L1816.92 46.3733L1817.92 44.64L1814.67 42.76V39" fill="black"/>
<rect width="20" height="20" transform="translate(1880 23)" fill="white"/>
<path fill-rule="evenodd" clip-rule="evenodd" d="M1891.25 27.5L1884.75 27.5C1884.06 27.5 1883.5 28.0596 1883.5 28.75L1883.5 37.25C1883.5 37.9404 1884.06 38.5 1884.75 38.5H1891.25C1891.67 38.5 1892 38.8358 1892 39.25C1892 39.6642 1891.67 40 1891.25 40H1884.75C1883.23 40 1882 38.7688 1882 37.25L1882 28.75C1882 27.2312 1883.23 26 1884.75 26L1891.25 26C1891.67 26 1892 26.3358 1892 26.75C1892 27.1642 1891.67 27.5 1891.25 27.5ZM1890.03 29.7197C1890.32 30.0126 1890.32 30.4874 1890.03 30.7803L1888.56 32.25L1897.25 32.25C1897.66 32.25 1898 32.5858 1898 33C1898 33.4142 1897.66 33.75 1897.25 33.75L1888.56 33.75L1890.03 35.2197C1890.32 35.5126 1890.32 35.9874 1890.03 36.2803C1889.74 36.5732 1889.26 36.5732 1888.97 36.2803L1886.22 33.5303C1886.08 33.3897 1886 33.1989 1886 33C1886 32.8011 1886.08 32.6103 1886.22 32.4697L1888.97 29.7197C1889.26 29.4268 1889.74 29.4268 1890.03 29.7197Z" fill="black"/>
<rect width="20" height="20" transform="translate(1950 23)" fill="white"/>
<path fill-rule="evenodd" clip-rule="evenodd" d="M1961.25 27.5L1954.75 27.5C1954.06 27.5 1953.5 28.0596 1953.5 28.75L1953.5 37.25C1953.5 37.9404 1954.06 38.5 1954.75 38.5H1961.25C1961.67 38.5 1962 38.8358 1962 39.25C1962 39.6642 1961.67 40 1961.25 40H1954.75C1953.23 40 1952 38.7688 1952 37.25L1952 28.75C1952 27.2312 1953.23 26 1954.75 26L1961.25 26C1961.67 26 1962 26.3358 1962 26.75C1962 27.1642 1961.67 27.5 1961.25 27.5ZM1963.97 29.7197C1964.26 29.4268 1964.74 29.4268 1965.03 29.7197L1967.78 32.4697C1967.92 32.6103 1968 32.8011 1968 33C1968 33.1989 1967.92 33.3897 1967.78 33.5303L1965.03 36.2803C1964.74 36.5732 1964.26 36.5732 1963.97 36.2803C1963.68 35.9874 1963.68 35.5126 1963.97 35.2197L1965.44 33.75L1956.75 33.75C1956.34 33.75 1956 33.4142 1956 33C1956 32.5858 1956.34 32.25 1956.75 32.25L1965.44 32.25L1963.97 30.7803C1963.68 30.4874 1963.68 30.0126 1963.97 29.7197Z" fill="black"/>
<path fill-rule="evenodd" clip-rule="evenodd" d="M2042.39 30.7238C2042.91 30.2031 2043.76 30.2031 2044.28 30.7238L2051.61 38.0571C2052.13 38.5778 2052.13 39.422 2051.61 39.9427L2044.28 47.2761C2043.76 47.7968 2042.91 47.7968 2042.39 47.2761C2041.87 46.7554 2041.87 45.9111 2042.39 45.3904L2048.78 38.9999L2042.39 32.6094C2041.87 32.0887 2041.87 31.2445 2042.39 30.7238Z" fill="black"/>
<path d="M2118 25.6667C2118.74 25.6667 2119.33 26.2636 2119.33 27V42.4477L2123.72 38.0572C2124.24 37.5365 2125.09 37.5365 2125.61 38.0572C2126.13 38.5779 2126.13 39.4221 2125.61 39.9428L2118.94 46.6095C2118.42 47.1302 2117.58 47.1302 2117.06 46.6095L2110.39 39.9428C2109.87 39.4221 2109.87 38.5779 2110.39 38.0572C2110.91 37.5365 2111.76 37.5365 2112.28 38.0572L2116.67 42.4477V27C2116.67 26.2636 2117.26 25.6667 2118 25.6667Z" fill="black"/>
<path d="M2106 41.6667C2106.74 41.6667 2107.33 42.2636 2107.33 43V48.3333C2107.33 49.0697 2107.93 49.6667 2108.67 49.6667H2127.33C2128.07 49.6667 2128.67 49.0697 2128.67 48.3333V43C2128.67 42.2636 2129.26 41.6667 2130 41.6667C2130.74 41.6667 2131.33 42.2636 2131.33 43V48.3333C2131.33 50.5425 2129.54 52.3333 2127.33 52.3333H2108.67C2106.46 52.3333 2104.67 50.5425 2104.67 48.3333V43C2104.67 42.2636 2105.26 41.6667 2106 41.6667Z" fill="black"/>
<path fill-rule="evenodd" clip-rule="evenodd" d="M2195.72 30.7239C2196.24 30.2032 2197.09 30.2032 2197.61 30.7239L2204.94 38.0572C2205.46 38.5779 2205.46 39.4221 2204.94 39.9428L2197.61 47.2761C2197.09 47.7968 2196.24 47.7968 2195.72 47.2761C2195.2 46.7554 2195.2 45.9112 2195.72 45.3905L2202.11 39L2195.72 32.6095C2195.2 32.0888 2195.2 31.2446 2195.72 30.7239Z" fill="black"/>
<path d="M2287.66 46.5424C2288.18 47.0631 2289.02 47.0631 2289.54 46.5424C2290.06 46.0217 2290.06 45.1775 2289.54 44.6568L2283.89 39L2289.54 33.3431C2290.06 32.8224 2290.06 31.9782 2289.54 31.4575C2289.02 30.9368 2288.18 30.9368 2287.66 31.4575L2282 37.1144L2276.34 31.4575C2275.82 30.9368 2274.98 30.9368 2274.46 31.4575C2273.94 31.9782 2273.94 32.8224 2274.46 33.3431L2280.11 39L2274.46 44.6569C2273.94 45.1776 2273.94 46.0218 2274.46 46.5425C2274.98 47.0632 2275.82 47.0632 2276.34 46.5425L2282 40.8856L2287.66 46.5424Z" fill="black"/>
<path fill-rule="evenodd" clip-rule="evenodd" d="M2363.11 26.0035C2363.62 25.5544 2364.38 25.5544 2364.89 26.0035L2376.89 36.6701C2377.44 37.1593 2377.49 38.0021 2377 38.5525C2376.51 39.1029 2375.66 39.1524 2375.11 38.6632L2374.67 38.2654V49.6667C2374.67 51.1394 2373.47 52.3333 2372 52.3333H2356C2354.53 52.3333 2353.33 51.1394 2353.33 49.6667V38.2654L2352.89 38.6632C2352.34 39.1524 2351.49 39.1029 2351 38.5525C2350.51 38.0021 2350.56 37.1593 2351.11 36.6701L2363.11 26.0035ZM2356 35.8951V49.6667H2360V40.3333C2360 38.8606 2361.19 37.6667 2362.67 37.6667H2365.33C2366.81 37.6667 2368 38.8606 2368 40.3333V49.6667H2372V35.8951L2364 28.7839L2356 35.8951ZM2365.33 49.6667V40.3333H2362.67V49.6667H2365.33Z" fill="black"/>
<path fill-rule="evenodd" clip-rule="evenodd" d="M2449.28 44.1626C2447.75 45.116 2445.94 45.6667 2444 45.6667C2438.48 45.6667 2434 41.1895 2434 35.6667C2434 30.1438 2438.48 25.6667 2444 25.6667C2449.52 25.6667 2454 30.1438 2454 35.6667C2454 38.2876 2452.99 40.673 2451.34 42.4562L2458.94 50.0572C2459.46 50.5779 2459.46 51.4221 2458.94 51.9428C2458.42 52.4635 2457.58 52.4635 2457.06 51.9428L2449.28 44.1626ZM2451.33 35.6667C2451.33 39.7168 2448.05 43 2444 43C2439.95 43 2436.67 39.7168 2436.67 35.6667C2436.67 31.6166 2439.95 28.3333 2444 28.3333C2448.05 28.3333 2451.33 31.6166 2451.33 35.6667Z" fill="black"/>
<defs>
<clipPath id="clip0_2_413">
<rect width="32" height="32" fill="white" transform="translate(1634 23)"/>
</clipPath>
</defs>
</svg>
