<svg width="32" height="32" viewBox="0 0 32 32" fill="none" xmlns="http://www.w3.org/2000/svg">
<rect width="32" height="32" fill="white"/>
<path fill-rule="evenodd" clip-rule="evenodd" d="M16 4.00002C11.2252 4.00002 7.20002 8.20945 7.20002 13.6C7.20002 16.2917 8.35964 19.0498 9.95734 21.5501C11.5452 24.0351 13.4945 26.155 14.9119 27.5448C15.5307 28.1516 16.4693 28.1516 17.0881 27.5448C18.5055 26.155 20.4548 24.0351 22.0427 21.5501C23.6404 19.0498 24.8 16.2917 24.8 13.6C24.8 8.20945 20.7748 4.00002 16 4.00002ZM4.80002 13.6C4.80002 7.06124 9.72914 1.60002 16 1.60002C22.2709 1.60002 27.2 7.06124 27.2 13.6C27.2 16.9457 25.7768 20.1637 24.0651 22.8424C22.3436 25.5365 20.2571 27.7987 18.7685 29.2584C17.2164 30.7804 14.7837 30.7804 13.2315 29.2584C11.743 27.7987 9.65646 25.5365 7.93496 22.8424C6.22329 20.1637 4.80002 16.9457 4.80002 13.6ZM16 10.4068C14.6745 10.4068 13.6 11.4813 13.6 12.8068C13.6 14.1323 14.6745 15.2068 16 15.2068C17.3255 15.2068 18.4 14.1323 18.4 12.8068C18.4 11.4813 17.3255 10.4068 16 10.4068ZM11.2 12.8068C11.2 10.1558 13.3491 8.0068 16 8.0068C18.651 8.0068 20.8 10.1558 20.8 12.8068C20.8 15.4578 18.651 17.6068 16 17.6068C13.3491 17.6068 11.2 15.4578 11.2 12.8068Z" fill="black"/>
</svg>
