<svg width="20" height="20" viewBox="0 0 20 20" fill="none" xmlns="http://www.w3.org/2000/svg">
<rect width="20" height="20" fill="white"/>
<path fill-rule="evenodd" clip-rule="evenodd" d="M11.2512 4.5L4.75116 4.5C4.0608 4.5 3.50116 5.05964 3.50116 5.75L3.50116 14.25C3.50116 14.9404 4.0608 15.5 4.75116 15.5H11.2512C11.6654 15.5 12.0012 15.8358 12.0012 16.25C12.0012 16.6642 11.6654 17 11.2512 17H4.75116C3.23238 17 2.00116 15.7688 2.00116 14.25L2.00116 5.75C2.00116 4.23122 3.23238 3 4.75116 3L11.2512 3C11.6654 3 12.0012 3.33579 12.0012 3.75C12.0012 4.16421 11.6654 4.5 11.2512 4.5ZM10.0318 6.71967C10.3247 7.01256 10.3247 7.48744 10.0318 7.78033L8.56213 9.25L17.249 9.25C17.6632 9.25 17.999 9.58578 17.999 10C17.999 10.4142 17.6632 10.75 17.249 10.75L8.56212 10.75L10.0318 12.2197C10.3247 12.5126 10.3247 12.9874 10.0318 13.2803C9.7389 13.5732 9.26403 13.5732 8.97114 13.2803L6.22113 10.5303C6.08048 10.3897 6.00146 10.1989 6.00146 10C6.00146 9.80109 6.08048 9.61032 6.22113 9.46967L8.97113 6.71967C9.26403 6.42678 9.7389 6.42678 10.0318 6.71967Z" fill="black"/>
</svg>
