<svg width="20" height="20" viewBox="0 0 20 20" fill="none" xmlns="http://www.w3.org/2000/svg">
<rect width="20" height="20" fill="white"/>
<path fill-rule="evenodd" clip-rule="evenodd" d="M11.2511 4.5L4.7511 4.5C4.06074 4.5 3.5011 5.05964 3.5011 5.75L3.5011 14.25C3.5011 14.9404 4.06074 15.5 4.7511 15.5H11.2511C11.6653 15.5 12.0011 15.8358 12.0011 16.25C12.0011 16.6642 11.6653 17 11.2511 17H4.7511C3.23232 17 2.0011 15.7688 2.0011 14.25L2.0011 5.75C2.0011 4.23122 3.23232 3 4.7511 3L11.2511 3C11.6653 3 12.0011 3.33579 12.0011 3.75C12.0011 4.16421 11.6653 4.5 11.2511 4.5ZM13.9686 6.71967C14.2615 6.42678 14.7364 6.42678 15.0293 6.71967L17.7793 9.46967C17.9199 9.61032 17.9989 9.80109 17.9989 10C17.9989 10.1989 17.9199 10.3897 17.7793 10.5303L15.0293 13.2803C14.7364 13.5732 14.2615 13.5732 13.9686 13.2803C13.6757 12.9874 13.6757 12.5126 13.9686 12.2197L15.4383 10.75L6.75139 10.75C6.33718 10.75 6.00139 10.4142 6.00139 10C6.00139 9.58579 6.33718 9.25 6.75139 9.25L15.4383 9.25L13.9686 7.78033C13.6757 7.48744 13.6757 7.01256 13.9686 6.71967Z" fill="black"/>
</svg>
