<svg width="32" height="32" viewBox="0 0 32 32" fill="none" xmlns="http://www.w3.org/2000/svg">
<path d="M24 1.33333L26.4 3.72L21.0533 9.05333L22.9467 10.9467L28.28 5.61333L30.6667 8V1.33333M16 10.6667C10.8533 10.6667 6.66666 14.84 6.66666 20C6.66666 22.4754 7.64999 24.8493 9.40033 26.5997C11.1507 28.35 13.5246 29.3333 16 29.3333C21.1467 29.3333 25.3333 25.16 25.3333 20C25.3333 17.5246 24.35 15.1507 22.5997 13.4003C20.8493 11.65 18.4753 10.6667 16 10.6667ZM16 13.5333C19.56 13.5333 22.4667 16.4267 22.4667 20C22.4667 20.8492 22.2994 21.6901 21.9744 22.4747C21.6494 23.2593 21.1731 23.9721 20.5726 24.5726C19.9721 25.1731 19.2592 25.6494 18.4747 25.9744C17.6901 26.2994 16.8492 26.4667 16 26.4667C12.4267 26.4667 9.53332 23.5733 9.53332 20C9.53332 18.2849 10.2146 16.6401 11.4274 15.4274C12.6401 14.2146 14.2849 13.5333 16 13.5333ZM14.6667 16V20.92L18.92 23.3733L19.92 21.64L16.6667 19.76V16" fill="black"/>
</svg>
