<svg width="32" height="32" viewBox="0 0 32 32" fill="none" xmlns="http://www.w3.org/2000/svg">
<path d="M16 2.66666C16.7363 2.66666 17.3333 3.26362 17.3333 4V19.4477L21.7238 15.0572C22.2445 14.5365 23.0887 14.5365 23.6094 15.0572C24.1301 15.5779 24.1301 16.4221 23.6094 16.9428L16.9428 23.6095C16.4221 24.1302 15.5778 24.1302 15.0572 23.6095L8.39048 16.9428C7.86978 16.4221 7.86978 15.5779 8.39048 15.0572C8.91118 14.5365 9.7554 14.5365 10.2761 15.0572L14.6666 19.4477V4C14.6666 3.26362 15.2636 2.66666 16 2.66666Z" fill="black"/>
<path d="M3.99996 18.6667C4.73634 18.6667 5.33329 19.2636 5.33329 20V25.3333C5.33329 26.0697 5.93025 26.6667 6.66663 26.6667H25.3333C26.0697 26.6667 26.6666 26.0697 26.6666 25.3333V20C26.6666 19.2636 27.2636 18.6667 28 18.6667C28.7363 18.6667 29.3333 19.2636 29.3333 20V25.3333C29.3333 27.5425 27.5424 29.3333 25.3333 29.3333H6.66663C4.45749 29.3333 2.66663 27.5425 2.66663 25.3333V20C2.66663 19.2636 3.26358 18.6667 3.99996 18.6667Z" fill="black"/>
</svg>
