<svg width="32" height="32" viewBox="0 0 32 32" fill="none" xmlns="http://www.w3.org/2000/svg">
<path fill-rule="evenodd" clip-rule="evenodd" d="M19.277 21.1626C17.7453 22.116 15.937 22.6667 14 22.6667C8.47715 22.6667 4 18.1895 4 12.6667C4 7.14382 8.47715 2.66667 14 2.66667C19.5228 2.66667 24 7.14382 24 12.6667C24 15.2876 22.9917 17.673 21.3419 19.4562L28.9428 27.0572C29.4635 27.5779 29.4635 28.4221 28.9428 28.9428C28.4221 29.4635 27.5779 29.4635 27.0572 28.9428L19.277 21.1626ZM21.3333 12.6667C21.3333 16.7168 18.0501 20 14 20C9.94991 20 6.66667 16.7168 6.66667 12.6667C6.66667 8.61658 9.94991 5.33333 14 5.33333C18.0501 5.33333 21.3333 8.61658 21.3333 12.6667Z" fill="black"/>
</svg>
