<svg width="32" height="32" viewBox="0 0 32 32" fill="none" xmlns="http://www.w3.org/2000/svg">
<path fill-rule="evenodd" clip-rule="evenodd" d="M8 10.6667C10.2091 10.6667 12 8.87581 12 6.66667C12 4.45753 10.2091 2.66667 8 2.66667C5.79086 2.66667 4 4.45753 4 6.66667C4 8.87581 5.79086 10.6667 8 10.6667ZM8 8C8.73638 8 9.33333 7.40305 9.33333 6.66667C9.33333 5.93029 8.73638 5.33333 8 5.33333C7.26362 5.33333 6.66667 5.93029 6.66667 6.66667C6.66667 7.40305 7.26362 8 8 8Z" fill="black"/>
<path fill-rule="evenodd" clip-rule="evenodd" d="M20.2276 17.3333C20.7767 18.8869 22.2584 20 24 20C26.2091 20 28 18.2091 28 16C28 13.7909 26.2091 12 24 12C22.2584 12 20.7767 13.1131 20.2276 14.6667H5.33333C4.59695 14.6667 4 15.2636 4 16C4 16.7364 4.59695 17.3333 5.33333 17.3333H20.2276ZM24 17.3333C24.7364 17.3333 25.3333 16.7364 25.3333 16C25.3333 15.2636 24.7364 14.6667 24 14.6667C23.2636 14.6667 22.6667 15.2636 22.6667 16C22.6667 16.7364 23.2636 17.3333 24 17.3333Z" fill="black"/>
<path fill-rule="evenodd" clip-rule="evenodd" d="M14.6667 29.3333C12.925 29.3333 11.4434 28.2203 10.8943 26.6667H5.33333C4.59695 26.6667 4 26.0697 4 25.3333C4 24.597 4.59695 24 5.33333 24H10.8943C11.4434 22.4464 12.925 21.3333 14.6667 21.3333C16.8758 21.3333 18.6667 23.1242 18.6667 25.3333C18.6667 27.5425 16.8758 29.3333 14.6667 29.3333ZM16 25.3333C16 26.0697 15.403 26.6667 14.6667 26.6667C13.9303 26.6667 13.3333 26.0697 13.3333 25.3333C13.3333 24.597 13.9303 24 14.6667 24C15.403 24 16 24.597 16 25.3333Z" fill="black"/>
<path d="M14.6667 6.66667C14.6667 5.93029 15.2636 5.33333 16 5.33333L26.6667 5.33333C27.403 5.33333 28 5.93029 28 6.66667C28 7.40305 27.403 8 26.6667 8L16 8C15.2636 8 14.6667 7.40305 14.6667 6.66667Z" fill="black"/>
<path d="M22.6667 24C21.9303 24 21.3333 24.597 21.3333 25.3333C21.3333 26.0697 21.9303 26.6667 22.6667 26.6667H26.6667C27.403 26.6667 28 26.0697 28 25.3333C28 24.597 27.403 24 26.6667 24H22.6667Z" fill="black"/>
</svg>
